<?xml version="1.0" encoding="UTF-8"?>
<svg width="150px" height="40px" viewBox="0 0 150 40" version="1.1" xmlns="http://www.w3.org/2000/svg" xmlns:xlink="http://www.w3.org/1999/xlink">
    <title>logo</title>
    <defs>
        <linearGradient x1="100%" y1="100%" x2="0%" y2="100%" id="linearGradient-1">
            <stop stop-color="#359AFF" offset="0%"></stop>
            <stop stop-color="#00A5FF" offset="100%"></stop>
        </linearGradient>
    </defs>
    <g id="官网-PC端" stroke="none" stroke-width="1" fill="none" fill-rule="evenodd">
        <g id="官网-首页备份" transform="translate(-360.000000, -20.000000)" fill="url(#linearGradient-1)">
            <g id="logo" transform="translate(360.000000, 20.000000)">
                <path d="M114.215492,16.7800503 L122.881513,22.1438684 C123.696111,22.6480624 124.389777,23.331128 124.911838,24.1431657 C126.847591,27.1541268 126.019028,31.1924148 123.061189,33.1629345 L114.395169,38.9362593 C113.353346,39.6303248 112.135277,40 110.890177,40 C107.355216,40 104.489563,37.0828808 104.489563,33.484432 L104.489563,22.347289 C104.489563,21.1533679 104.811826,19.9823993 105.421161,18.9622513 C107.257682,15.8875502 111.195038,14.9105456 114.215492,16.7800503 Z M75.3672275,0 L75.3672275,5.90514362 L56.7042088,5.90514362 C53.754579,5.90514362 52.2797862,7.07190995 52.2797862,9.40547762 L52.2797862,15.7915832 L75.3672275,15.7915832 L75.3672275,21.6967268 L52.2797862,21.6967268 L52.2797862,30.5410822 C52.2797862,31.6989593 52.6283736,32.5985272 53.3255588,33.239813 C53.9154848,33.7742178 54.6752265,34.0414162 55.6048068,34.0414162 L75.3672275,34.0414162 L75.3672275,39.9465598 L55.6048068,39.9465598 C54.0495475,39.9465598 52.4049301,39.6170151 50.6709053,38.9579158 C47.310115,37.6753443 45.6297451,34.6025627 45.6297451,29.739479 L45.6297451,9.61923848 C45.6297451,6.71563901 46.4878063,4.32866667 48.2039546,2.45824983 C49.7234608,0.819408417 51.7792325,0 54.3713314,0 L75.3672275,0 Z M38.1903874,3.07160156 C38.946849,4.17631128 39.3520156,5.48711365 39.3520156,6.829722 L39.3520156,39.7666465 L33.1412738,39.7666465 L33.1412738,6.829722 C33.1412738,6.7590584 33.1199493,6.6900688 33.0801355,6.63192619 C32.9718362,6.47376965 32.7569345,6.43411465 32.6001393,6.54335426 L27.9349522,9.79360124 C22.9654013,13.2558991 16.3957936,13.2760132 11.405497,9.84420913 L6.75014924,6.64274784 C6.69285657,6.60334794 6.62512413,6.58227417 6.55578299,6.58227417 C6.36522199,6.58227417 6.21074178,6.73809558 6.21074178,6.93031104 L6.21074178,39.9465598 L0,39.9465598 L0,6.93031104 C0,3.27821734 2.93512402,0.317610441 6.55578299,0.317610441 C7.87326468,0.317610441 9.16018105,0.718012052 10.2487417,1.46661023 L14.9040895,4.66807152 C17.7725277,6.64068329 21.5487589,6.62912168 24.4052724,4.63898194 L29.0704595,1.38873496 C32.0495689,-0.686817648 36.1326997,0.0666273901 38.1903874,3.07160156 Z M98.4894312,15.8307727 L98.4894312,19.3082461 L87.5457939,19.3082461 C85.8161874,19.3082461 84.9513971,19.9953419 84.9513971,21.3695539 L84.9513971,25.1302605 L98.4894312,25.1302605 L98.4894312,28.607734 L84.9513971,28.607734 L84.9513971,34.398278 C84.9513971,35.080139 85.1558021,35.6098846 85.5646181,35.9875306 C85.9105394,36.3022357 86.3560375,36.4595858 86.9011256,36.4595858 L98.4894312,36.4595858 L98.4894312,39.9370593 L86.9011256,39.9370593 C85.9891512,39.9370593 85.024779,39.7429941 84.0079801,39.3548579 C82.0372769,38.5995657 81.0519401,36.7900388 81.0519401,33.9262228 L81.0519401,21.4954353 C81.0519401,19.7855379 81.5550908,18.3798764 82.5614073,17.2784087 C83.4524167,16.3133132 84.657882,15.8307727 86.1778392,15.8307727 L98.4894312,15.8307727 Z M150,15.9251837 L150,34.0521042 C150,36.0032755 149.470644,37.4718771 148.411915,38.4579529 C147.374151,39.4230484 146.058621,39.905589 144.465287,39.905589 L134.543685,39.905589 C132.803596,39.905589 131.46186,39.4440285 130.518439,38.5208936 C129.533087,37.5662883 129.040419,36.359937 129.040419,34.9018036 L129.040419,15.9409189 L132.939876,15.9409189 L132.939876,33.9891635 C132.939876,34.9857295 133.107593,35.6413552 133.443031,35.9560603 C133.77847,36.2707653 134.197763,36.4281155 134.700921,36.4281155 L143.993578,36.4281155 C145.398228,36.4281155 146.100543,35.6885697 146.100543,34.2094559 L146.100543,15.9409189 L150,15.9251837 Z M15.5195824,15.7823845 C15.8390856,15.6415893 16.4219514,16.1531182 16.9801706,16.7679057 L17.2350115,17.0569865 C17.2768437,17.1057221 17.3182679,17.154569 17.359153,17.2032771 L17.7090233,17.6311559 L17.7090233,17.6311559 L18.0935258,18.1200296 L18.0935258,18.1200296 C18.2987105,18.3831981 18.7179953,18.309484 18.9189374,18.2337412 C18.972522,18.2135432 19.0271613,18.0933888 19.0857823,17.9270622 L19.2765171,17.3433493 C19.3981617,16.9847965 19.5409637,16.6495544 19.7206095,16.6258715 C19.8703144,16.6061357 20.004448,16.8911928 20.122775,17.2508842 L20.2203217,17.5721007 L20.2203217,17.5721007 L20.3920577,18.195365 C20.4570987,18.4228931 20.5139723,18.5878474 20.5625928,18.6063507 C20.8236709,18.7057082 21.0661243,18.9693609 21.1642194,19.3272433 C21.2894318,19.7840584 21.2338342,20.0140653 21.1507486,20.1867357 L21.0408468,20.3904874 C20.9735734,20.5230466 20.934381,20.6668425 21.0198223,20.9285977 C21.06357,21.0626218 21.1291159,21.1423275 21.1967114,21.2071642 L21.3287842,21.3287012 C21.3903358,21.3912458 21.4407715,21.4652212 21.4603429,21.5900766 C21.5125336,21.9230246 21.436994,22.4016414 21.2609756,22.6219634 C21.1196475,22.7988637 20.8400397,23.0742536 20.3153552,23.39369 C20.0486572,23.5560601 19.5204395,23.7720161 19.0732683,23.9304445 L18.7178168,24.0495603 L18.7178168,24.0495603 L18.2569443,24.1914371 C17.6660313,24.3781716 17.3912316,24.5240097 17.3287528,25.1224782 C17.2652527,25.7307297 17.3923598,26.1089184 17.6307783,26.5054067 L17.7588964,26.7063257 L17.7588964,26.7063257 L18.1459015,27.2672408 L18.1459015,27.2672408 L18.3216055,27.5331638 C18.6823876,28.0968053 19.0950095,28.8650183 19.4801758,30.086165 L19.50215,30.1621483 L19.50215,30.1621483 L19.543295,30.3398759 L19.543295,30.3398759 L19.582075,30.5491022 L19.582075,30.5491022 L19.7715059,31.7887473 L19.7715059,31.7887473 L19.8267365,32.1101029 L19.8267365,32.1101029 L19.8903139,32.440734 L19.8903139,32.440734 L19.9638861,32.7772217 C19.990259,32.8899805 20.0185725,33.0031455 20.049101,33.116147 L20.1476067,33.4540908 C20.6408751,35.0235537 21.6221403,36.4492711 23.8450678,36.1676353 C26.0165804,35.8925136 26.2553717,33.6340728 26.0321188,31.693275 L25.9835339,31.322221 L25.9835339,31.322221 L25.9257796,30.9628072 L25.9257796,30.9628072 L25.8612253,30.6187409 L25.8612253,30.6187409 L25.7922407,30.2937296 L25.7922407,30.2937296 L25.6856405,29.8500504 L25.6856405,29.8500504 L25.582401,29.4700986 L25.582401,29.4700986 L25.4905197,29.1663868 L25.4905197,29.1663868 L25.4179938,28.9514271 L25.4179938,28.9514271 C25.3575154,28.7841959 25.2858266,28.6110334 25.2094756,28.435102 L24.8643664,27.6537243 L24.8643664,27.6537243 L24.758554,27.3986706 C24.7417392,27.3564976 24.725396,27.3145224 24.7096167,27.2727892 L24.6224429,27.0256518 C24.3593266,26.2139178 24.3953997,25.5346177 25.4674121,25.3435574 C27.3549197,25.0071547 29.2714651,26.8843901 29.7877935,29.1960138 C29.8149686,29.3176782 29.8409886,29.443678 29.8654384,29.5735932 L29.9336616,29.9746649 C30.2888607,32.3092069 30.0702847,35.6539199 27.2385375,37.9453586 C24.0736435,40.5063784 17.6087969,40.6401917 13.3892053,37.4897538 C9.16961372,34.3393159 7.73515969,27.874442 12.223795,22.2467301 C12.564555,21.8194958 12.9261816,21.4766339 13.279031,21.1803532 L13.6278568,20.8981999 L13.6278568,20.8981999 L14.2816041,20.3934638 C14.9438489,19.8714938 15.4257289,19.3907889 15.4257289,18.5669649 C15.4257289,18.2501095 15.406872,17.9585771 15.3812232,17.6929197 L15.3391643,17.3139092 L15.3391643,17.3139092 L15.2767676,16.8190733 C15.2113806,16.2687804 15.2086812,15.9193891 15.5195824,15.7823845 Z M108.562936,20.9068474 C108.303645,21.3409529 108.166512,21.8392375 108.166512,22.347289 L108.166512,33.484432 C108.166512,35.0156868 109.385938,36.2570141 110.890177,36.2570141 C111.420007,36.2570141 111.938334,36.0997055 112.381663,35.8043585 L121.047683,30.0310337 C122.306338,29.1925147 122.658918,27.4740942 121.835193,26.1928342 C121.61304,25.8472862 121.317862,25.55662 120.971225,25.3420694 L112.305205,19.9782513 C111.019905,19.1827173 109.344435,19.598464 108.562936,20.9068474 Z" id="形状"></path>
            </g>
        </g>
    </g>
</svg>